<!--?xml version="1.0" standalone="no"?-->
              <svg id="sw-js-blob-svg" viewBox="0 0 100 100" xmlns="http://www.w3.org/2000/svg" version="1.1">
                    <defs> 
                        <linearGradient id="sw-gradient" x1="0" x2="1" y1="1" y2="0">
                            <stop id="stop1" stop-color="rgba(216, 180, 160, 1)" offset="0%"></stop>
                            <stop id="stop2" stop-color="rgba(215, 122, 97, 1)" offset="100%"></stop>
                        </linearGradient>
                    </defs>
                <path fill="url(#sw-gradient)" d="M15.6,-19.3C21.4,-17.2,28.3,-14.3,32.1,-8.9C35.8,-3.6,36.6,4.3,32.8,9C29,13.7,20.6,15.4,14.4,18.7C8.2,22,4.1,27,-1.1,28.5C-6.3,30,-12.5,27.9,-17.5,24.2C-22.4,20.5,-26,15.1,-29.4,8.6C-32.8,2.2,-35.9,-5.3,-35,-12.4C-34.1,-19.5,-29.1,-26.3,-22.6,-28.3C-16.1,-30.3,-8,-27.4,-1.6,-25.2C4.9,-23,9.7,-21.5,15.6,-19.3Z" width="100%" height="100%" transform="translate(50 50)" stroke-width="0" style="transition: all 0.3s ease 0s;" stroke="url(#sw-gradient)"></path>
              </svg>