<svg id="visual" viewBox="0 0 960 540" width="960" height="540" xmlns="http://www.w3.org/2000/svg" xmlns:xlink="http://www.w3.org/1999/xlink" version="1.1"><path d="M0 315L22.8 319.8C45.7 324.7 91.3 334.3 137 346.2C182.7 358 228.3 372 274 381C319.7 390 365.3 394 411.2 388.7C457 383.3 503 368.7 548.8 368C594.7 367.3 640.3 380.7 686 375.3C731.7 370 777.3 346 823 345.2C868.7 344.3 914.3 366.7 937.2 377.8L960 389L960 541L937.2 541C914.3 541 868.7 541 823 541C777.3 541 731.7 541 686 541C640.3 541 594.7 541 548.8 541C503 541 457 541 411.2 541C365.3 541 319.7 541 274 541C228.3 541 182.7 541 137 541C91.3 541 45.7 541 22.8 541L0 541Z" fill="#f6977c"></path><path d="M0 391L22.8 385.5C45.7 380 91.3 369 137 375.5C182.7 382 228.3 406 274 412C319.7 418 365.3 406 411.2 397.5C457 389 503 384 548.8 380.7C594.7 377.3 640.3 375.7 686 382C731.7 388.3 777.3 402.7 823 412C868.7 421.3 914.3 425.7 937.2 427.8L960 430L960 541L937.2 541C914.3 541 868.7 541 823 541C777.3 541 731.7 541 686 541C640.3 541 594.7 541 548.8 541C503 541 457 541 411.2 541C365.3 541 319.7 541 274 541C228.3 541 182.7 541 137 541C91.3 541 45.7 541 22.8 541L0 541Z" fill="#ee8f75"></path><path d="M0 428L22.8 429.7C45.7 431.3 91.3 434.7 137 430C182.7 425.3 228.3 412.7 274 413.5C319.7 414.3 365.3 428.7 411.2 434.2C457 439.7 503 436.3 548.8 434.2C594.7 432 640.3 431 686 433.8C731.7 436.7 777.3 443.3 823 441C868.7 438.7 914.3 427.3 937.2 421.7L960 416L960 541L937.2 541C914.3 541 868.7 541 823 541C777.3 541 731.7 541 686 541C640.3 541 594.7 541 548.8 541C503 541 457 541 411.2 541C365.3 541 319.7 541 274 541C228.3 541 182.7 541 137 541C91.3 541 45.7 541 22.8 541L0 541Z" fill="#e6886e"></path><path d="M0 441L22.8 446.2C45.7 451.3 91.3 461.7 137 469.5C182.7 477.3 228.3 482.7 274 478C319.7 473.3 365.3 458.7 411.2 457.2C457 455.7 503 467.3 548.8 467.2C594.7 467 640.3 455 686 447.7C731.7 440.3 777.3 437.7 823 445.2C868.7 452.7 914.3 470.3 937.2 479.2L960 488L960 541L937.2 541C914.3 541 868.7 541 823 541C777.3 541 731.7 541 686 541C640.3 541 594.7 541 548.8 541C503 541 457 541 411.2 541C365.3 541 319.7 541 274 541C228.3 541 182.7 541 137 541C91.3 541 45.7 541 22.8 541L0 541Z" fill="#de8167"></path><path d="M0 481L22.8 486.2C45.7 491.3 91.3 501.7 137 501.3C182.7 501 228.3 490 274 485.7C319.7 481.3 365.3 483.7 411.2 486.2C457 488.7 503 491.3 548.8 493.7C594.7 496 640.3 498 686 500.5C731.7 503 777.3 506 823 505.2C868.7 504.3 914.3 499.7 937.2 497.3L960 495L960 541L937.2 541C914.3 541 868.7 541 823 541C777.3 541 731.7 541 686 541C640.3 541 594.7 541 548.8 541C503 541 457 541 411.2 541C365.3 541 319.7 541 274 541C228.3 541 182.7 541 137 541C91.3 541 45.7 541 22.8 541L0 541Z" fill="#d77a61"></path></svg>